<svg width="231" height="177" viewBox="0 0 231 177" fill="none" xmlns="http://www.w3.org/2000/svg">
<g filter="url(#filter0_d_347_569)">
<path d="M114.517 158.513C69.3285 157.899 31.6819 136.776 21.5673 116.555C22.6838 121.42 24.2962 126.157 26.3791 130.692C35.6254 151.029 71.3587 172.405 114.319 172.99C157.28 173.574 193.581 153.176 203.377 133.099C205.582 128.621 207.323 123.929 208.571 119.096C197.912 139.041 159.705 159.127 114.517 158.513Z" fill="url(#paint0_linear_347_569)"/>
<path d="M114.517 158.513C69.3285 157.899 31.6819 136.776 21.5673 116.555C22.6838 121.42 24.2962 126.157 26.3791 130.692C35.6254 151.029 71.3587 172.405 114.319 172.99C157.28 173.574 193.581 153.176 203.377 133.099C205.582 128.621 207.323 123.929 208.571 119.096C197.912 139.041 159.705 159.127 114.517 158.513Z" fill="url(#paint1_linear_347_569)" fill-opacity="0.2"/>
<path d="M175.935 42.1617C166.622 35.6409 158.054 28.1147 150.386 19.7191C145.127 13.9904 140.426 6.84064 134.471 1.8241C131.346 -0.806544 129.683 5.20793 127.097 5.1732C124.512 5.13846 120.124 0.047707 116.678 0.000336442C113.232 -0.0470341 108.707 4.92371 106.122 4.88739C103.536 4.85108 102.028 -1.2013 98.8328 1.35039C92.7375 6.20114 87.8437 13.2199 82.4304 18.8033C74.5374 26.9848 65.7682 34.2727 56.2812 40.5353C50.5901 44.2886 11.8079 73.3898 21.5673 116.555C31.6819 136.776 69.3285 157.899 114.517 158.513C159.705 159.127 197.912 139.036 208.571 119.096C219.494 76.2131 181.524 46.0682 175.935 42.1617Z" fill="url(#paint2_linear_347_569)"/>
<path d="M175.935 42.1617C166.622 35.6409 158.054 28.1147 150.386 19.7191C145.127 13.9904 140.426 6.84064 134.471 1.8241C131.346 -0.806544 129.683 5.20793 127.097 5.1732C124.512 5.13846 120.124 0.047707 116.678 0.000336442C113.232 -0.0470341 108.707 4.92371 106.122 4.88739C103.536 4.85108 102.028 -1.2013 98.8328 1.35039C92.7375 6.20114 87.8437 13.2199 82.4304 18.8033C74.5374 26.9848 65.7682 34.2727 56.2812 40.5353C50.5901 44.2886 11.8079 73.3898 21.5673 116.555C31.6819 136.776 69.3285 157.899 114.517 158.513C159.705 159.127 197.912 139.036 208.571 119.096C219.494 76.2131 181.524 46.0682 175.935 42.1617Z" fill="url(#paint3_linear_347_569)" fill-opacity="0.2"/>
</g>
<defs>
<filter id="filter0_d_347_569" x="0" y="-16" width="230.534" height="213.002" filterUnits="userSpaceOnUse" color-interpolation-filters="sRGB">
<feFlood flood-opacity="0" result="BackgroundImageFix"/>
<feColorMatrix in="SourceAlpha" type="matrix" values="0 0 0 0 0 0 0 0 0 0 0 0 0 0 0 0 0 0 127 0" result="hardAlpha"/>
<feOffset dy="4"/>
<feGaussianBlur stdDeviation="10"/>
<feComposite in2="hardAlpha" operator="out"/>
<feColorMatrix type="matrix" values="0 0 0 0 0 0 0 0 0 0 0 0 0 0 0 0 0 0 0.1 0"/>
<feBlend mode="normal" in2="BackgroundImageFix" result="effect1_dropShadow_347_569"/>
<feBlend mode="normal" in="SourceGraphic" in2="effect1_dropShadow_347_569" result="shape"/>
</filter>
<linearGradient id="paint0_linear_347_569" x1="115.267" y1="0" x2="115.267" y2="158.527" gradientUnits="userSpaceOnUse">
<stop stop-color="#FFEEE1"/>
<stop offset="1" stop-color="#FBC0A6"/>
</linearGradient>
<linearGradient id="paint1_linear_347_569" x1="115.267" y1="0" x2="115.267" y2="173.002" gradientUnits="userSpaceOnUse">
<stop stop-color="white"/>
<stop offset="1" stop-color="#F5CC8F"/>
</linearGradient>
<linearGradient id="paint2_linear_347_569" x1="115.267" y1="0" x2="115.267" y2="158.527" gradientUnits="userSpaceOnUse">
<stop stop-color="#FFEEE1"/>
<stop offset="1" stop-color="#FBC0A6"/>
</linearGradient>
<linearGradient id="paint3_linear_347_569" x1="115.267" y1="0" x2="115.267" y2="173.002" gradientUnits="userSpaceOnUse">
<stop stop-color="white"/>
<stop offset="1" stop-color="#F5CC8F"/>
</linearGradient>
</defs>
</svg>
